<?xml version="1.0" encoding="UTF-8"?>
<svg width="24px" height="18px" viewBox="0 0 24 18" version="1.1" xmlns="http://www.w3.org/2000/svg" xmlns:xlink="http://www.w3.org/1999/xlink">
    <!-- Generator: Sketch 51.3 (57544) - http://www.bohemiancoding.com/sketch -->
    <title>prosegue</title>
    <desc>Created with Sketch.</desc>
    <defs></defs>
    <g id="Page-1" stroke="none" stroke-width="1" fill="none" fill-rule="evenodd">
        <g id="prosegue" transform="translate(0.000000, -3.000000)" fill-rule="nonzero">
            <rect id="Rectangle-7" x="0" y="0" width="24" height="24"></rect>
            <path d="M24,9.3586877 C24,10.4661096 23.0320313,11.4130314 21.9,11.4130314 L17.2194844,11.4130314 C17.9854219,12.2121564 18.0794531,13.7458127 16.9242188,14.7385314 C17.5939688,15.8086408 17.0248594,17.2237033 16.153125,17.6595471 C16.5737812,19.9630314 15.1244062,21.0000002 12.75,21.0000002 C12.6212813,21.0000002 12.1276875,20.9904846 12,20.9908596 C9.09510937,20.9987346 8.39559375,19.5346877 6.20010938,19.1948439 C5.6529375,19.1101408 5.25,18.6374533 5.25,18.0837189 L5.25,10.0434846 L5.25009375,10.0434377 C5.25060937,9.18253145 5.74729687,8.36114082 6.58434375,7.98820332 C7.938375,7.37910957 11.0568281,5.68954707 11.625,4.3636877 C11.9904844,3.51084395 12.627375,3.0003752 13.5,3.0000002 C15.1041562,2.99934395 16.207125,4.64521895 15.5680781,6.1363127 C15.400125,6.52814082 15.1784531,6.91771895 14.9046563,7.30434395 L21.9,7.30434395 C22.9992187,7.30434395 24,8.26729707 24,9.3586877 Z M4.5,9.3750002 L4.5,18.3750002 C4.5,18.9963283 3.99632812,19.5000002 3.375,19.5000002 L1.125,19.5000002 C0.503671875,19.5000002 0,18.9963283 0,18.3750002 L0,9.3750002 C0,8.75367207 0.503671875,8.2500002 1.125,8.2500002 L3.375,8.2500002 C3.99632812,8.2500002 4.5,8.75367207 4.5,9.3750002 Z M3.1875,17.2500002 C3.1875,16.7322189 2.76778125,16.3125002 2.25,16.3125002 C1.73221875,16.3125002 1.3125,16.7322189 1.3125,17.2500002 C1.3125,17.7677814 1.73221875,18.1875002 2.25,18.1875002 C2.76778125,18.1875002 3.1875,17.7677814 3.1875,17.2500002 Z" id="Shape" fill="#0066CC"></path>
        </g>
    </g>
</svg>