<?xml version="1.0" encoding="UTF-8"?>
<svg width="24px" height="24px" viewBox="0 0 24 24" version="1.1" xmlns="http://www.w3.org/2000/svg" xmlns:xlink="http://www.w3.org/1999/xlink">
    <!-- Generator: Sketch 51.3 (57544) - http://www.bohemiancoding.com/sketch -->
    <title>repeat</title>
    <desc>Created with Sketch.</desc>
    <defs></defs>
    <g id="Page-1" stroke="none" stroke-width="1" fill="none" fill-rule="evenodd">
        <g id="repeat" fill-rule="nonzero">
            <rect id="Rectangle-7" x="0" y="0" width="24" height="24"></rect>
            <path d="M17.5509677,6.06193548 C16.0382903,4.64554839 14.0752258,3.86912903 11.9926452,3.87096774 C8.24467742,3.87425806 5.00903226,6.44409677 4.11566129,10.008871 C4.05062903,10.268371 3.81943548,10.4516129 3.55190323,10.4516129 L0.779177419,10.4516129 C0.416370968,10.4516129 0.140758065,10.1222419 0.207870968,9.76567742 C1.25482258,4.206 6.1361129,0 12,0 C15.2152258,0 18.1350484,1.26464516 20.2894355,3.32346774 L22.0175806,1.59532258 C22.7491452,0.863758065 24,1.3818871 24,2.4165 L24,8.90322581 C24,9.54459677 23.4800806,10.0645161 22.8387097,10.0645161 L16.3519839,10.0645161 C15.317371,10.0645161 14.7992419,8.81366129 15.5308065,8.08204839 L17.5509677,6.06193548 Z M1.16129032,13.9354839 L7.64801613,13.9354839 C8.68262903,13.9354839 9.20075806,15.1863387 8.46919355,15.9179516 L6.44903226,17.9381129 C7.96170968,19.3545484 9.92491935,20.1309677 12.0075484,20.1290806 C15.7535806,20.1256935 18.9905323,17.5575968 19.8843387,13.9912258 C19.949371,13.7317258 20.1805645,13.5484839 20.4480968,13.5484839 L23.220871,13.5484839 C23.5836774,13.5484839 23.8592903,13.8778548 23.7921774,14.2344194 C22.7451774,19.794 17.8638871,24 12,24 C8.78477419,24 5.86495161,22.7353548 3.71056452,20.6765323 L1.98241935,22.4046774 C1.25085484,23.1362419 0,22.6181129 0,21.5835 L0,15.0967742 C0,14.4554032 0.519919355,13.9354839 1.16129032,13.9354839 Z" id="Shape" fill="#0066CC"></path>
        </g>
    </g>
</svg>