<?xml version="1.0" encoding="UTF-8"?>
<svg width="24px" height="18px" viewBox="0 0 24 18" version="1.1" xmlns="http://www.w3.org/2000/svg" xmlns:xlink="http://www.w3.org/1999/xlink">
    <!-- Generator: Sketch 51.3 (57544) - http://www.bohemiancoding.com/sketch -->
    <title>repeat copy 3</title>
    <desc>Created with Sketch.</desc>
    <defs></defs>
    <g id="Page-1" stroke="none" stroke-width="1" fill="none" fill-rule="evenodd">
        <g id="repeat-copy-3" transform="translate(0.000000, -3.000000)" fill-rule="nonzero">
            <rect id="Rectangle-7" x="0" y="0" width="24" height="24"></rect>
            <path d="M23.25,18 L3,18 L3,3.75 C3,3.335625 2.664375,3 2.25,3 L0.75,3 C0.335625,3 0,3.335625 0,3.75 L0,19.5 C0,20.3282812 0.67171875,21 1.5,21 L23.25,21 C23.664375,21 24,20.664375 24,20.25 L24,18.75 C24,18.335625 23.664375,18 23.25,18 Z M21.75,4.5 L16.2159375,4.5 C15.21375,4.5 14.7117187,5.71171875 15.4204688,6.42046875 L16.9392187,7.93921875 L13.5,11.3789062 L10.0607812,7.9396875 C9.47484375,7.35375 8.52515625,7.35375 7.9396875,7.9396875 L4.71984375,11.1595313 C4.426875,11.4525 4.426875,11.9273437 4.71984375,12.2203125 L5.78015625,13.280625 C6.073125,13.5735937 6.54796875,13.5735937 6.8409375,13.280625 L9,11.1210938 L12.4392187,14.5603125 C13.0251563,15.14625 13.9748437,15.14625 14.5603125,14.5603125 L19.0603125,10.0603125 L20.5790625,11.5790625 C21.2878125,12.2878125 22.4995312,11.7857812 22.4995312,10.7835938 L22.4995312,5.25 C22.5,4.835625 22.164375,4.5 21.75,4.5 Z" id="Shape" fill="#0066CC"></path>
        </g>
    </g>
</svg>