<?xml version="1.0" encoding="UTF-8"?>
<svg width="24px" height="24px" viewBox="0 0 24 24" version="1.1" xmlns="http://www.w3.org/2000/svg" xmlns:xlink="http://www.w3.org/1999/xlink">
    <!-- Generator: Sketch 51.3 (57544) - http://www.bohemiancoding.com/sketch -->
    <title>repeat copy 2</title>
    <desc>Created with Sketch.</desc>
    <defs></defs>
    <g id="Page-1" stroke="none" stroke-width="1" fill="none" fill-rule="evenodd">
        <g id="repeat-copy-2" fill-rule="nonzero">
            <rect id="Rectangle-7" x="0" y="0" width="24" height="24"></rect>
            <path d="M19.5,15 L15,15 C14.175,15 13.5,14.325 13.5,13.5 C13.5,12.675 14.175,12 15,12 L19.5,12 C19.5,12 24,6.984375 24,4.5 C24,2.015625 21.984375,0 19.5,0 C17.015625,0 15,2.015625 15,4.5 C15,5.6953125 16.040625,7.471875 17.1234375,9 L15,9 C12.5203125,9 10.5,11.0203125 10.5,13.5 C10.5,15.9796875 12.5203125,18 15,18 L19.5,18 C20.325,18 21,18.675 21,19.5 C21,20.325 20.325,21 19.5,21 L8.6953125,21 C7.9453125,22.1625 7.1109375,23.2359375 6.478125,24 L19.5,24 C21.9796875,24 24,21.9796875 24,19.5 C24,17.0203125 21.9796875,15 19.5,15 Z M19.5,3 C20.3296875,3 21,3.6703125 21,4.5 C21,5.3296875 20.3296875,6 19.5,6 C18.6703125,6 18,5.3296875 18,4.5 C18,3.6703125 18.6703125,3 19.5,3 Z M4.5,12 C2.015625,12 0,14.015625 0,16.5 C0,18.984375 4.5,24 4.5,24 C4.5,24 9,18.984375 9,16.5 C9,14.015625 6.984375,12 4.5,12 Z M4.5,18 C3.6703125,18 3,17.3296875 3,16.5 C3,15.6703125 3.6703125,15 4.5,15 C5.3296875,15 6,15.6703125 6,16.5 C6,17.3296875 5.3296875,18 4.5,18 Z" id="Shape" fill="#0066CC"></path>
        </g>
    </g>
</svg>