<?xml version="1.0" encoding="UTF-8"?>
<svg width="20px" height="24px" viewBox="0 0 20 24" version="1.1" xmlns="http://www.w3.org/2000/svg" xmlns:xlink="http://www.w3.org/1999/xlink">
    <!-- Generator: Sketch 51.3 (57544) - http://www.bohemiancoding.com/sketch -->
    <title>risultati_down</title>
    <desc>Created with Sketch.</desc>
    <defs></defs>
    <g id="Page-1" stroke="none" stroke-width="1" fill="none" fill-rule="evenodd">
        <g id="risultati_down" transform="translate(11.000000, 12.000000) rotate(-270.000000) translate(-11.000000, -12.000000) translate(-1.000000, 0.000000)" fill-rule="nonzero">
            <rect id="Rectangle-7" x="0" y="0" width="24" height="24"></rect>
            <path d="M11.973,13.623 L3.813,21.783 C3.249,22.347 2.337,22.347 1.779,21.783 L0.423,20.427 C-0.141,19.863 -0.141,18.951 0.423,18.393 L6.207,12.609 L0.423,6.825 C-0.141,6.261 -0.141,5.349 0.423,4.791 L1.773,3.423 C2.337,2.859 3.249,2.859 3.807,3.423 L11.967,11.583 C12.537,12.147 12.537,13.059 11.973,13.623 Z M23.493,11.583 L15.333,3.423 C14.769,2.859 13.857,2.859 13.299,3.423 L11.943,4.779 C11.379,5.343 11.379,6.255 11.943,6.813 L17.727,12.597 L11.943,18.381 C11.379,18.945 11.379,19.857 11.943,20.415 L13.299,21.771 C13.863,22.335 14.775,22.335 15.333,21.771 L23.493,13.611 C24.057,13.059 24.057,12.147 23.493,11.583 Z" id="Shape" fill="#0066CC"></path>
        </g>
    </g>
</svg>