<?xml version="1.0" encoding="UTF-8"?>
<svg width="18px" height="24px" viewBox="0 0 18 24" version="1.1" xmlns="http://www.w3.org/2000/svg" xmlns:xlink="http://www.w3.org/1999/xlink">
    <!-- Generator: Sketch 51.3 (57544) - http://www.bohemiancoding.com/sketch -->
    <title>ritardo</title>
    <desc>Created with Sketch.</desc>
    <defs></defs>
    <g id="Page-1" stroke="none" stroke-width="1" fill="none" fill-rule="evenodd">
        <g id="ritardo" transform="translate(-3.000000, 0.000000)" fill-rule="nonzero">
            <rect id="Rectangle-7" x="0" y="0" width="24" height="24"></rect>
            <path d="M19.875,0 L4.125,0 C3.50367188,0 3,0.503671875 3,1.125 L3,1.875 C3,2.49632813 3.50367188,3 4.125,3 C4.125,7.26398438 6.516375,10.8625313 9.78946875,12 C6.516375,13.1374688 4.125,16.7360156 4.125,21 C3.50367188,21 3,21.5036719 3,22.125 L3,22.875 C3,23.4963281 3.50367188,24 4.125,24 L19.875,24 C20.4963281,24 21,23.4963281 21,22.875 L21,22.125 C21,21.5036719 20.4963281,21 19.875,21 C19.875,16.7360156 17.483625,13.1374688 14.2105313,12 C17.483625,10.8625313 19.875,7.26398438 19.875,3 C20.4963281,3 21,2.49632813 21,1.875 L21,1.125 C21,0.503671875 20.4963281,0 19.875,0 Z M16.3557187,18 L7.644375,18 C8.44401563,15.8063906 10.086375,14.25 12,14.25 C13.9134844,14.25 15.5560312,15.8060625 16.3557187,18 Z M16.3566094,6 L7.64428125,6 C7.3119375,5.0881875 7.125,4.0663125 7.125,3 L16.875,3 C16.875,4.06898438 16.6881094,5.09001563 16.3566094,6 Z" id="Shape" fill="#0066CC"></path>
        </g>
    </g>
</svg>